<?xml version="1.0" encoding="UTF-8"?>
<!-- Created with Inkscape (http://www.inkscape.org/) -->
<svg width="48" height="48" version="1.1" viewBox="0 0 12.7 12.7" xml:space="preserve" xmlns="http://www.w3.org/2000/svg">
<style>.cls-1{fill:none;}
    @media (prefers-color-scheme: dark) {
        path {
            fill: white !important;
        }
    }
</style>
<path d="m5.0692 12.515c-0.079291-0.07929-0.14416-0.3462-0.14416-0.59312 0-0.30833-0.19235-0.52863-0.61407-0.70332-0.52725-0.2184-0.66835-0.20524-0.99794 0.093035-0.46408 0.41999-0.92304 0.23042-1.7119-0.70709-0.49901-0.59304-0.50938-0.65101-0.20073-1.1221 0.45443-0.69355 0.063578-1.6621-0.7067-1.7513-0.50981-0.059006-0.5415-0.12853-0.59828-1.3127-0.059336-1.2375-0.053782-1.2517 0.53841-1.3818 0.82554-0.18132 1.2537-1.1632 0.74992-1.7199-0.41999-0.46408-0.23042-0.92304 0.70709-1.7119 0.59304-0.49901 0.65101-0.50938 1.1221-0.20073 0.69355 0.45443 1.6621 0.063576 1.7513-0.7067 0.05834-0.50403 0.13621-0.54218 1.2225-0.59899 1.149-0.060081 1.163-0.053997 1.4497 0.63215 0.35254 0.84376 1.1517 1.126 1.865 0.65867 0.44194-0.28957 0.51638-0.27498 1.0994 0.2156 0.9333 0.78532 1.1268 1.2481 0.71303 1.7053-0.515 0.56907-0.1566 1.4495 0.67809 1.6658 0.63539 0.16465 0.64583 0.18703 0.64583 1.3844 0 1.1975-0.01004 1.2191-0.6264 1.3423-0.83302 0.1666-1.1469 0.8402-0.79137 1.6985 0.25308 0.611 0.23263 0.66454-0.55446 1.4516-0.80351 0.80351-0.82593 0.81153-1.3352 0.47784-0.47266-0.3097-0.57133-0.3118-1.1279-0.023968-0.35204 0.18205-0.6375 0.50946-0.6751 0.77433-0.057464 0.40477-0.19779 0.46594-1.1895 0.51851-0.6184 0.032779-1.1892-0.00526-1.2685-0.084564zm1.328-4.7055c1.4072 0.0053 1.6591 0.067844 2.3813 0.59104l0.80769 0.58509 0.44694-0.86135c1.6461-3.1724-1.4035-6.7532-4.7975-5.6331-0.96523 0.31855-2.1217 1.3357-2.4721 2.1742-0.41917 1.0032-0.35063 2.8756 0.13438 3.6711l0.40707 0.66767 0.75921-0.60033c0.69549-0.54994 0.8913-0.59983 2.3329-0.59438zm-1.0662-1.4599c-0.87847-0.87847-0.22967-2.4356 1.0148-2.4356 0.33827 0 0.78931 0.18041 1.0148 0.40593 0.87847 0.87847 0.22967 2.4356-1.0148 2.4356-0.33827 0-0.78931-0.18041-1.0148-0.40593z" stroke-width=".76711"/></svg>
