<?xml version="1.0" encoding="UTF-8"?>
<!-- Created with Inkscape (http://www.inkscape.org/) -->
<svg width="50" height="50" version="1.1" viewBox="0 0 13.229 13.229" xml:space="preserve" xmlns="http://www.w3.org/2000/svg">
<style>@media (prefers-color-scheme: dark) {
         path {
            fill: white !important;
         }
      }</style>
<g transform="matrix(.95462 0 0 .95462 .19295 .24075)" stroke-width=".76729"><path d="m0.69934 9.2993 0.89351-2.6718-0.89351-2.6718c-0.55532-1.6605-0.82376-2.7176-0.70921-2.7928 0.26425-0.17352 13.586 5.1847 13.586 5.4645 0 0.2798-13.322 5.638-13.586 5.4645-0.11454-0.07522 0.15389-1.1323 0.70921-2.7928zm5.5187-0.19075c2.7802-1.1148 5.0548-2.065 5.0548-2.1116 0-0.046524-2.0446-0.08363-4.5436-0.082457l-4.5436 0.0021247-0.7285 2.1745c-0.41797 1.2476-0.63588 2.1468-0.51121 2.1094 0.11951-0.035807 2.492-0.97724 5.2721-2.0921zm0.61312-2.7821c2.5333-0.0089525 4.4686-0.085466 4.3006-0.17003-0.16799-0.084564-2.5774-1.0621-5.3542-2.1723l-5.0488-2.0185 0.69566 2.1241c0.38261 1.1682 0.71929 2.1531 0.74817 2.1885 0.028888 0.035438 2.1252 0.057116 4.6586 0.048163z" stroke-width="2.4057"/></g></svg>
