<?xml version="1.0" encoding="UTF-8"?>
<!-- Created with Inkscape (http://www.inkscape.org/) -->
<svg width="32" height="32" version="1.1" viewBox="0 0 8.4667 8.4667" xml:space="preserve" xmlns="http://www.w3.org/2000/svg">
  <style>
    @media (prefers-color-scheme: dark) {
      path {
        fill: white !important;
      }
    }
  </style>
<path d="m7.9484 8.3902c-0.040975-0.017517-0.61733-0.57614-1.2808-1.2414l-1.2063-1.2095-0.26909 0.18257c-1.0338 0.70143-2.4115 0.73134-3.5141 0.076294-0.31563-0.18751-0.74208-0.57967-0.95532-0.8785-0.24178-0.33882-0.45237-0.80319-0.54392-1.1994-0.11564-0.50043-0.090484-1.2302 0.05828-1.6907 0.34847-1.0788 1.0995-1.83 2.1796-2.1799 0.26946-0.087293 0.39708-0.105 0.85675-0.11889 0.4868-0.014703 0.57573-0.0071214 0.90077 0.076814 1.5271 0.39436 2.5612 1.7885 2.4768 3.3395-0.033954 0.62443-0.21359 1.1739-0.54201 1.658l-0.18257 0.26908 1.2228 1.2224c0.70871 0.70847 1.2325 1.2611 1.2459 1.3145 0.032438 0.12924-0.047166 0.29782-0.17083 0.36177-0.11719 0.060602-0.16775 0.063816-0.27598 0.017547zm-3.9153-2.4581c0.93475-0.23907 1.6973-1.0229 1.9055-1.9586 0.093307-0.4194 0.060106-1.0538-0.075477-1.4423-0.27453-0.78656-0.94025-1.415-1.77-1.671-0.36276-0.1119-1.0103-0.1205-1.3783-0.018301-0.92697 0.25743-1.6309 0.96119-1.886 1.8856-0.10173 0.36856-0.09294 1.0163 0.018709 1.3783 0.1268 0.41105 0.31941 0.75085 0.5933 1.0467 0.37699 0.40718 0.78047 0.64991 1.3237 0.7963 0.29433 0.079318 0.92577 0.071014 1.2687-0.016683z" stroke-width="2.276"/></svg>
