<?xml version="1.0" encoding="UTF-8"?>
<!-- Created with Inkscape (http://www.inkscape.org/) -->
<svg width="48" height="48" version="1.1" viewBox="0 0 12.7 12.7" xml:space="preserve" xmlns="http://www.w3.org/2000/svg">
<style>
    @media (prefers-color-scheme: dark) {
      path {
        fill: white !important;
      }
    }
</style>
<path d="m5.8301 12.314c-0.13526-0.14946-0.32817-0.27175-0.42868-0.27175-0.10052 0-0.30504-0.12229-0.4545-0.27175-0.21392-0.21392-0.27175-0.45291-0.27175-1.123 0-0.85121-6.54e-5 -0.85135-0.78639-1.6777-1.7463-1.8351-2.3518-4.2579-1.5292-6.1178 0.36951-0.83533 1.4099-1.887 2.2986-2.3234 0.65252-0.32045 0.93303-0.37531 1.9192-0.37531s1.2666 0.054852 1.9192 0.37531c0.8887 0.43644 1.9291 1.4881 2.2986 2.3234 0.82269 1.8598 0.2171 4.2826-1.5292 6.1178-0.78632 0.82634-0.78639 0.82648-0.78639 1.6777 0 0.67012-0.057836 0.90912-0.27175 1.123-0.14946 0.14946-0.35398 0.27175-0.4545 0.27175-0.10052 0-0.29342 0.12229-0.42868 0.27175-0.16129 0.17822-0.41849 0.27175-0.7473 0.27175-0.32882 0-0.58602-0.09352-0.7473-0.27175zm2.0789-1.6644 0.040751-0.78127h-2.731v0.72466c0 0.39856 0.042892 0.76755 0.095318 0.81998 0.052426 0.05243 0.64857 0.07791 1.3248 0.05661l1.2294-0.03871zm0.98678-2.106c0.93558-1.0221 1.6324-2.4822 1.7192-3.6021 0.090002-1.1618-0.31924-2.2377-1.1777-3.0962-1.9406-1.9406-5.1145-1.4611-6.4648 0.97677-0.35286 0.63706-0.40329 0.86406-0.40329 1.8151 0 0.97361 0.052552 1.197 0.50383 2.1421 0.2988 0.62574 0.79064 1.3584 1.2086 1.8003l0.70477 0.74519h3.1943z" stroke-width=".51354"/></svg>
