<?xml version="1.0" encoding="UTF-8"?>
<!-- Created with Inkscape (http://www.inkscape.org/) -->
<svg width="48" height="48" version="1.1" viewBox="0 0 12.7 12.7" xml:space="preserve" xmlns="http://www.w3.org/2000/svg">
<style>
    @media (prefers-color-scheme: dark) {
      path {
        fill: white !important;
      }
    }
</style>
<path d="m2.5916 12.221c-0.25538-0.1721-0.59267-0.5314-0.74955-0.79844-0.27192-0.46288-0.28523-0.6961-0.28523-4.9985 0-4.3024 0.013309-4.5356 0.28523-4.9985 0.15687-0.26704 0.49417-0.62634 0.74955-0.79844 0.41948-0.28269 0.62997-0.31291 2.1795-0.31291h1.7152v3.8837s-0.020416 0.52426 0.11449 0.67542c0.13491 0.15116 0.69495 0.23154 0.69495 0.23154l4.1201 0.13886v2.8466c0 2.6214-0.02256 2.885-0.28523 3.3322-0.15688 0.26704-0.49417 0.62634-0.74955 0.79844-0.4506 0.30366-0.56568 0.3129-3.8947 0.3129-3.3291 0-3.4441-0.0093-3.8947-0.3129zm4.9521-8.2438c-0.12112-0.11535-0.081062-0.72258-0.054992-1.8449l0.03911-1.6838 3.7453 3.7539h-1.7515c-1.3263 0-1.6611 0.076656-1.7987-0.054386 0 0-0.066003-0.036846-0.09207-0.061671-0.033688-0.032082-0.087188-0.10905-0.087187-0.10905z" stroke-width=".52482"/></svg>
