<?xml version="1.0" encoding="UTF-8"?>
<!-- Created with Inkscape (http://www.inkscape.org/) -->
<svg width="48" height="48" version="1.1" viewBox="0 0 12.7 12.7" xml:space="preserve" xmlns="http://www.w3.org/2000/svg">
  <style>
    @media (prefers-color-scheme: dark) {
      path {
        stroke: white !important;
      }
    }
  </style>
  
  
  <g id="layer-gears">
    <path id="gears" d="m5.9068 0.44226-0.45836 1.275 0.0060606 0.073277 0.22236 1.1067-1.2882 0.53316-0.62513-0.93947-0.048009-0.056096-1.2255-0.57763-0.67819 0.6787 0.57763 1.2255 0.056096 0.047504 0.93947 0.62564-0.53366 1.2877-1.1067-0.22236-0.073277-0.0055631-1.275 0.45786v0.95968l1.275 0.45786 0.073277-0.0055625 1.1067-0.22236 0.53366 1.2882-0.93947 0.62513-0.056096 0.04801-0.57763 1.2255 0.67819 0.6782 1.2255-0.57763 0.048009-0.0561 0.62513-0.93947 1.2882 0.53366-0.22236 1.1067-0.00606 0.07328 0.45836 1.275h0.95968l0.45786-1.275-0.00606-0.07328-0.22185-1.1067 1.2877-0.53366 0.62564 0.93947 0.047504 0.0561 1.2255 0.57763 0.6787-0.67819-0.57763-1.2255-0.0561-0.048009-0.93947-0.62513 0.53316-1.2882 1.1067 0.22236 0.07328 0.00556 1.275-0.45786v-0.95969l-1.275-0.45786-0.073277 0.0055631-1.1067 0.22236-0.53316-1.2877 0.93947-0.62564 0.056096-0.047504 0.57763-1.2255-0.6787-0.6787-1.2255 0.57763-0.047504 0.056096-0.62564 0.93947-1.2877-0.53316 0.22185-1.1067 0.0060606-0.073277-0.45786-1.275zm0.47959 4.102a1.8878 1.8878 0 0 1 1.888 1.888 1.8878 1.8878 0 0 1-1.888 1.8875 1.8878 1.8878 0 0 1-1.8875-1.8875 1.8878 1.8878 0 0 1 1.8875-1.888z" fill="none" stroke="#000" stroke-width=".50641"/>
  </g>
</svg>
