<?xml version="1.0" encoding="UTF-8"?>
<!-- Created with Inkscape (http://www.inkscape.org/) -->
<svg width="48" height="48" version="1.1" viewBox="0 0 12.7 12.7" xml:space="preserve" xmlns="http://www.w3.org/2000/svg">
<style>
    @media (prefers-color-scheme: dark) {
      path {
        fill: white !important;
      }
    }
</style>
<path d="m0.82486 11.771c-1.4599-1.4599-0.60867-4.0141 1.4603-4.3815 0.50337-0.089375 1.2099-0.43719 1.5701-0.77291 0.45318-0.42238 0.70985-0.52153 0.83324-0.32187 0.27956 0.45234-1.1057 1.7365-1.8732 1.7365-1.6316 0-2.5791 1.9614-1.5373 3.1822 1.0987 1.2874 3.2866 0.40509 3.2866-1.3254 0-0.70445 0.81811-1.8568 1.3182-1.8568 0.31288 0 0.17449 0.67971-0.20202 0.99218-0.20464 0.16983-0.37207 0.58151-0.37207 0.91484 0 2.2828-2.8634 3.4532-4.4839 1.8328zm7.544-1.0733c-0.97042-0.98908-1.8924-2.0495-2.0489-2.3564-0.15647-0.30695-0.44406-0.55811-0.63911-0.55811-0.42894 0-0.84717-0.73905-0.68135-1.204 0.15071-0.4226-2.8765-3.5088-3.4417-3.5088-0.47537 0-1.5187-1.6142-1.4076-2.1777 0.22012-1.1163 2.6593-0.59836 2.8862 0.61279 0.096005 0.5125 2.9941 3.5513 3.3814 3.5455 0.14036-0.0020891 0.087783-0.10967-0.11685-0.23908-0.32722-0.20692-0.32255-0.28481 0.0387-0.64616 0.32258-0.32268 0.35886-0.55979 0.16898-1.1045-0.50331-1.4438 1.0968-2.9674 3.1164-2.9674 1.0543 0 1.1106 0.20491 0.27257 0.99218-0.77707 0.73002-0.77681 1.0065 0.00162 1.7379 0.62179 0.58414 0.62179 0.58414 1.3158-0.080788 0.94264-0.90311 1.287-0.84544 1.287 0.21555 0 1.4673-1.1354 3.117-2.1426 3.1131-2.3425-0.0089765-2.6959-0.15001-1.9427-0.77511 0.29341-0.24351 0.52152-0.25014 1.0064-0.029216 0.72716 0.33132 1.354 0.085107 1.9501-0.76592 0.56659-0.80892 0.52013-1.3825-0.068847-0.84949-1.0487 0.94904-3.43-1.0337-2.6575-2.2127 0.53712-0.81975 0.068594-0.75712-0.91571 0.12242-0.76927 0.68737-0.79464 0.76466-0.50389 1.5351 0.25342 0.67148 0.24445 0.87944-0.05208 1.2071-0.31494 0.348-0.29947 0.43255 0.12791 0.69946 0.26739 0.16699 0.48615 0.46617 0.48615 0.66485 0 0.19868 0.25115 0.48926 0.55811 0.64573 1.3643 0.69545 4.1548 3.7903 4.1548 4.6079 0 2.2512-1.8005 2.1535-4.1333-0.22412zm3.3333 0.6108c0.38822-0.58469-2.1749-3.6367-3.647-4.3426-0.34289-0.16442-0.74604-0.54492-0.89589-0.84555-0.27244-0.5466-0.27244-0.5466-0.92593 0.10688-0.65349 0.65349-0.65349 0.65349-0.10688 0.92593 0.30063 0.14985 0.68113 0.55299 0.84555 0.89589 0.40985 0.85474 3.7209 4.0165 4.0806 3.8966 0.15996-0.05335 0.45225-0.34005 0.64953-0.63718zm-2.7925-1.7847c-1.1578-1.17-1.4078-1.5525-1.17-1.7902 0.32803-0.32803 3.3585 2.4013 3.1986 2.8808-0.18567 0.55701-0.63976 0.31288-2.0286-1.0906zm-4.7853-5.5291c-0.98567-0.99229-1.7921-1.9385-1.7921-2.1027 0-0.3594-1.1931-1.1839-1.4056-0.9714-0.21671 0.21671 0.61547 1.4056 0.98388 1.4056 0.17104 0 1.0863 0.78134 2.034 1.7363 0.94766 0.95498 1.779 1.7363 1.8475 1.7363 0.068424 0-0.68199-0.81188-1.6677-1.8042zm-2.4937 6.9344c-0.42402-0.45135-0.52324-0.76462-0.39897-1.2597 0.28352-1.1296 1.6708-1.5232 2.4263-0.6884 1.2636 1.3962-0.7385 3.3201-2.0274 1.9482zm1.4081-0.38891c0.48935-0.31011 0.24163-1.1325-0.36744-1.2198-0.62197-0.089172-0.9743 0.60081-0.56104 1.0987 0.32696 0.39396 0.46871 0.41244 0.92849 0.12107z" stroke-width="4.3983"/></svg>
