<?xml version="1.0" encoding="UTF-8"?>
<!-- Created with Inkscape (http://www.inkscape.org/) -->
<svg width="40" height="40" version="1.1" viewBox="0 0 10.583 10.583" xml:space="preserve" xmlns="http://www.w3.org/2000/svg">
<style
   id="style1">@media (prefers-color-scheme: dark) {
         path {
            fill: white !important;
         }
      }</style>
<path d="m8.4076 9.0688-1.47-1.4728-0.96143 0.95407c-0.80158 0.79544-1.0004 0.92949-1.1958 0.80626-0.12888-0.081296-0.47285-0.74037-0.76439-1.4646l-0.53006-1.3168-1.4803-0.83206c-0.81419-0.45763-1.5503-0.91635-1.6358-1.0194-0.085504-0.10303-0.19198-0.41238-0.23662-0.68745-0.079631-0.49071-0.048728-0.53257 1.6403-2.2216 1.6891-1.6891 1.7309-1.72 2.2216-1.6403 0.27507 0.044638 0.58443 0.15112 0.68745 0.23662 0.10303 0.085504 0.56174 0.82162 1.0194 1.6358l0.83206 1.4803 1.3168 0.53006c0.72424 0.29153 1.3833 0.63551 1.4646 0.76439 0.12323 0.19536-0.010722 0.39407-0.80549 1.195l-0.9533 0.96066 1.482 1.4866c1.4957 1.5004 1.7421 1.9527 1.1113 2.0403-0.19025 0.026423-0.71553-0.40619-1.7424-1.435zm-0.31257-4.0147c-0.031418-0.050833-0.52289-0.27025-1.0922-0.4876l-1.035-0.39517-0.91116-1.6093c-0.56088-0.99061-0.99428-1.6093-1.1274-1.6093-0.27864 0-3.0173 2.7431-3.0173 3.0221 0 0.12702 0.64455 0.57635 1.6146 1.1256 1.4337 0.81177 1.6353 0.97182 1.7998 1.4288 0.1019 0.28305 0.30206 0.78804 0.44482 1.1222l0.25956 0.60755 1.5607-1.5563c0.85838-0.85594 1.535-1.5979 1.5036-1.6487z" stroke-width=".51734"/></svg>
