<?xml version="1.0" encoding="UTF-8"?>
<svg width="24" height="24" version="1.1" viewBox="0 0 29.538 29.538" xmlns="http://www.w3.org/2000/svg">
 <defs>
  <style>.cls-1{fill:none;}
	@media (prefers-color-scheme: dark) {
            path {
                fill: white !important;
            }
        }
  </style>
 </defs>
 <g transform="matrix(1.125 0 0 1.125 -3.15 -3.1502)" data-name="Layer 2">
  <path d="m4 29a1 1 0 0 1-0.71-0.29 1 1 0 0 1 0-1.42l24-24a1.0041 1.0041 0 1 1 1.42 1.42l-24 24a1 1 0 0 1-0.71 0.29z"/>
  <path d="m28 29a1 1 0 0 1-0.71-0.29l-24-24a1.0041 1.0041 0 0 1 1.42-1.42l24 24a1 1 0 0 1 0 1.42 1 1 0 0 1-0.71 0.29z"/>
 </g>
 <g id="frame">
  <rect class="cls-1" width="32" height="32"/>
 </g>
</svg>
