<?xml version="1.0" encoding="UTF-8"?>
<!-- Created with Inkscape (http://www.inkscape.org/) -->
<svg width="48" height="48" version="1.1" viewBox="0 0 12.7 12.7" xml:space="preserve" xmlns="http://www.w3.org/2000/svg">
<style>
    @media (prefers-color-scheme: dark) {
      path {
        stroke: white !important;
      }
    }
</style>
<path d="m0.91003 12.179c-0.54773-0.47114-0.51743-1.135 0.10514-2.303 1.5144-2.8414 4.9847-4.0145 7.8633-2.6582 1.0221 0.48159 2.1869 1.6091 2.746 2.6582 0.62256 1.168 0.65287 1.8319 0.10513 2.303l-0.40708 0.35016h-10.005zm10.57-0.52236c0.32482-0.60694-0.70469-2.4716-1.8142-3.2859-1.1735-0.86124-1.8094-1.0634-3.3456-1.0634-1.5362 0-2.1721 0.20211-3.3456 1.0634-1.1095 0.81426-2.139 2.6789-1.8142 3.2859 0.14402 0.26911 0.3803 0.28202 5.1597 0.28202s5.0157-0.01291 5.1597-0.28202zm-6.122-5.8286c-0.24509-0.10679-0.65666-0.43453-0.91459-0.7283-1.0865-1.2375-1.0174-3.0013 0.16407-4.1827 1.0569-1.0569 2.3687-1.0569 3.4256 0 1.1816 1.1816 1.2506 2.9452 0.16363 4.1832-0.77488 0.88254-1.8506 1.1583-2.8388 0.7278zm1.9673-0.68362c0.5647-0.34429 1.0552-1.3033 1.0552-2.0631 0-0.28418-0.12754-0.79764-0.28342-1.141-0.73163-1.6117-2.822-1.6117-3.5536 0-0.96083 2.1166 0.952 4.3198 2.7819 3.2042z" stroke-width=".55795"/></svg>
