<?xml version="1.0" encoding="UTF-8"?>
<!-- Created with Inkscape (http://www.inkscape.org/) -->
<svg width="38" height="38" version="1.1" viewBox="0 0 10.054 10.054" xml:space="preserve" xmlns="http://www.w3.org/2000/svg">
    <style>
        @media (prefers-color-scheme: dark) {
            path {
                fill: white !important;
            }
        }
    </style>
<path d="m3.9125 9.8741c-0.86501-0.21015-1.5452-0.5913-2.2771-1.2759-2.0817-1.9474-2.0798-5.208 0.0042188-7.1575 0.375-0.35079 0.9509-0.7651 1.2798-0.92069 1.9526-0.92371 4.2512-0.48905 5.7206 1.0817 1.1268 1.2046 1.5956 2.6753 1.3358 4.1906-0.18002 1.0498-0.57765 1.8383-1.3358 2.6487-1.2224 1.3067-3.0131 1.8495-4.7276 1.433zm2.7787-0.60084c1.2033-0.46186 2.139-1.394 2.6299-2.62 0.33814-0.84455 0.33926-2.4139 0.0023445-3.2638-0.884-2.2297-3.3296-3.4206-5.5904-2.7223-3.8156 1.1785-4.3804 6.2934-0.9189 8.322 1.0781 0.63183 2.6675 0.74825 3.8771 0.28398zm-1.7747-2.5814c-0.041137-0.041137-0.074795-0.38262-0.074795-0.75884v-0.68405l-0.73435-0.032169c-0.56593-0.024791-0.73435-0.069595-0.73435-0.19536 0-0.12564 0.16783-0.17056 0.72949-0.19525l0.72949-0.032057 0.032056-0.72949c0.024683-0.56166 0.069601-0.72949 0.19525-0.72949 0.12564 0 0.17056 0.16783 0.19525 0.72949l0.03206 0.72949 0.72949 0.032057c0.56166 0.024682 0.72949 0.069602 0.72949 0.19525 0 0.12564-0.16783 0.17056-0.72949 0.19525l-0.72949 0.032058-0.03206 0.72082c-0.029404 0.66114-0.14729 0.91304-0.33804 0.72229z" stroke-width=".41118"/></svg>
