<?xml version="1.0" encoding="UTF-8"?>
<!-- Created with Inkscape (http://www.inkscape.org/) -->
<svg width="48" height="48" version="1.1" viewBox="0 0 12.7 12.7" xml:space="preserve" xmlns="http://www.w3.org/2000/svg">
    <style>
        @media (prefers-color-scheme: dark) {
            path {
                fill: white !important;
            }
        }
    </style>
<path d="m0.23816 11.947c-0.05249-0.05249-0.095437-2.4632-0.095437-5.3571 0-5.0737 0.010072-5.2717 0.28187-5.5435 0.26622-0.26622 0.46979-0.28187 3.6644-0.28187h3.3825v2.255h-6.765v8.4562h11.275v-8.4562h-1.1275v-2.255h0.56375c0.37696 0 0.65771 0.093959 0.84732 0.28357 0.27548 0.27548 0.28252 0.4353 0.24664 5.6023l-0.03692 5.3187-6.0706 0.03671c-3.3388 0.0202-6.1135-0.0063-6.166-0.05872zm8.6881-2.8977c-0.075801-0.099475-0.3073-0.47756-0.51443-0.84018l-0.37661-0.65932v-3.1746c0-2.0592 0.055941-3.2974 0.15922-3.524 0.08757-0.1922 0.34126-0.42485 0.56375-0.51701 0.51958-0.21522 1.1468 0.021008 1.3728 0.51701 0.10397 0.22818 0.15732 1.4598 0.15373 3.5491l-0.0055 3.1997-0.45635 0.76467c-0.49136 0.82337-0.68072 0.96796-0.89662 0.68463zm0.8002-4.4795v-2.9597h-1.1275v5.9194h1.1275z" stroke-width=".53268"/></svg>
