<?xml version="1.0" encoding="UTF-8"?>
<svg width="48" height="48" version="1.1" viewBox="0 0 48 48" xmlns="http://www.w3.org/2000/svg">
 <style>@media (prefers-color-scheme: dark) {
      path {
        fill: white !important;
      }
    }</style>
 <path d="m1.6946 2.7811c-0.45048 0.10221-0.76847 0.50727-0.75711 0.9691v34.585c0 4.1149 2.1388 6.4355 4.2398 7.4803 2.101 1.0448 4.1793 0.99939 4.1793 0.99939h29.8v-0.09085c0.46562 0.053 0.9691 0.09085 0.9691 0.09085s1.8625 0.01136 3.725-1.06c1.8171-1.0448 3.6076-3.2556 3.6947-7.0866 0.01136-0.01893 0.02272-0.04164 0.03029-0.06057v-0.06057c0.0038-0.04921 0.0038-0.10221 0-0.15142v-24.318-0.03028s0.01515-1.1357-0.57541-2.3016c-0.59055-1.166-1.9647-2.4228-4.1187-2.4228v-0.030284h-9.1762v1.9382h5.3906c-0.11735 0.16656-0.21578 0.31799-0.30284 0.48455-0.59055 1.1546-0.60569 2.3016-0.60569 2.3016v23.501c-0.0038 0.34827 0.17792 0.67383 0.48077 0.85175 0.30284 0.17414 0.67383 0.17414 0.97667 0 0.30284-0.17792 0.48455-0.50348 0.48077-0.85175v-23.501c0-0.0265 0.03785-0.72683 0.3937-1.4234 0.36341-0.7079 0.87446-1.3325 2.3622-1.3325 1.4839 0 1.995 0.63976 2.3622 1.3628 0.35963 0.71169 0.42398 1.4272 0.42398 1.4537h-0.03028v24.318c0 3.4486-1.3779 4.9023-2.7559 5.6935s-2.7559 0.7874-2.7559 0.7874-1.6391-0.02272-3.2707-0.84797c-1.6316-0.82525-3.2102-2.2751-3.2102-5.6935v-34.585c0-0.53376-0.43534-0.9691-0.9691-0.9691h-30.769c-0.071926-0.00757-0.14007-0.00757-0.21199 0zm1.1811 1.9382h28.831v33.616c0 3.1874 1.3514 5.2733 2.9376 6.5414h-25.288-0.030284s-0.41641 0.0038-1.0297-0.09085c-0.30663-0.049216-0.64733-0.12871-1.0297-0.24228-0.38234-0.11357-0.80632-0.25363-1.2114-0.45427-0.20442-0.10221-0.40884-0.20821-0.60569-0.33313-1.3855-0.87068-2.5742-2.3735-2.5742-5.4209zm3.8764 6.0266c-0.53376 0.07571-0.90853 0.57162-0.83282 1.1054 0.075711 0.53376 0.57162 0.90854 1.1054 0.83282h19.11c0.34827 0.0038 0.67383-0.17792 0.85175-0.48077 0.17414-0.30284 0.17414-0.67383 0-0.97667-0.17792-0.30284-0.50348-0.48455-0.85175-0.48077h-19.11-0.090853-0.090854-0.090853zm0 3.8764c-0.53376 0.07571-0.90853 0.57162-0.83282 1.1054 0.075711 0.53376 0.57162 0.90854 1.1054 0.83282h19.11c0.34827 0.0038 0.67383-0.17792 0.85175-0.48077 0.17414-0.30284 0.17414-0.67383 0-0.97667-0.17792-0.30284-0.50348-0.48455-0.85175-0.48077h-19.11-0.090853-0.090854-0.090853zm0.45427 7.7528c-0.53376 0.07571-0.90853 0.57162-0.83282 1.1054 0.075711 0.53376 0.57162 0.90854 1.1054 0.83282h6.5717c0.34827 0.0038 0.67383-0.17792 0.85175-0.48077 0.17414-0.30284 0.17414-0.67383 0-0.97667-0.17792-0.30284-0.50348-0.48455-0.85175-0.48077h-6.5717-0.090853-0.090853-0.090854zm11.175 0c-0.53376 0.07571-0.90853 0.57162-0.83282 1.1054 0.07571 0.53376 0.57162 0.90854 1.1054 0.83282h7.4803c0.34827 0.0038 0.67383-0.17792 0.85175-0.48077 0.17414-0.30284 0.17414-0.67383 0-0.97667-0.17792-0.30284-0.50348-0.48455-0.85175-0.48077h-7.4803-0.09085-0.09085-0.09085zm-11.175 3.8764c-0.53376 0.07571-0.90853 0.57162-0.83282 1.1054 0.075711 0.53376 0.57162 0.90853 1.1054 0.83282h6.5717c0.34827 0.0038 0.67383-0.17792 0.85175-0.48077 0.17414-0.30284 0.17414-0.67383 0-0.97668-0.17792-0.30284-0.50348-0.48455-0.85175-0.48077h-6.5717-0.090853-0.090853-0.090854zm11.175 0c-0.53376 0.07571-0.90853 0.57162-0.83282 1.1054 0.07571 0.53376 0.57162 0.90853 1.1054 0.83282h7.4803c0.34827 0.0038 0.67383-0.17792 0.85175-0.48077 0.17414-0.30284 0.17414-0.67383 0-0.97668-0.17792-0.30284-0.50348-0.48455-0.85175-0.48077h-7.4803-0.09085-0.09085-0.09085zm0 3.6644c-0.53376 0.07572-0.90853 0.57162-0.83282 1.1054 0.07572 0.53376 0.57162 0.90853 1.1054 0.83282h7.4803c0.34827 0.0038 0.67383-0.17792 0.85175-0.48077 0.17414-0.30284 0.17414-0.67383 0-0.97668-0.17792-0.30284-0.50348-0.48455-0.85175-0.48077h-7.4803c-0.06057-0.0076-0.12114-0.0076-0.18171 0h-0.09085zm-11.175 0.21199c-0.53376 0.07571-0.90853 0.57162-0.83282 1.1054 0.075711 0.53376 0.57162 0.90854 1.1054 0.83282h6.5717c0.34827 0.0038 0.67383-0.17792 0.85175-0.48077 0.17414-0.30284 0.17414-0.67383 0-0.97667-0.17792-0.30284-0.50348-0.48455-0.85175-0.48077h-6.5717-0.090853-0.090853-0.090854zm11.175 3.6644c-0.53376 0.07572-0.90853 0.57162-0.83282 1.1054 0.07572 0.53376 0.57162 0.90854 1.1054 0.83282h7.4803c0.34827 0.0038 0.67383-0.17792 0.85175-0.48077 0.17414-0.30284 0.17414-0.67383 0-0.97667-0.17792-0.30284-0.50348-0.48455-0.85175-0.48077h-7.4803c-0.06057-0.0076-0.12114-0.0076-0.18171 0h-0.09085zm-11.175 0.21199c-0.53376 0.07571-0.90853 0.57162-0.83282 1.1054 0.075711 0.53376 0.57162 0.90853 1.1054 0.83282h6.5717c0.34827 0.0038 0.67383-0.17792 0.85175-0.48077 0.17414-0.30284 0.17414-0.67383 0-0.97667-0.17792-0.30284-0.50348-0.48455-0.85175-0.48077h-6.5717-0.090853-0.090853-0.090854zm11.175 3.4221c-0.53376 0.07572-0.90853 0.57162-0.83282 1.1054 0.07572 0.53376 0.57162 0.90853 1.1054 0.83282h7.4803c0.34827 0.0038 0.67383-0.17792 0.85175-0.48077 0.17414-0.30284 0.17414-0.67383 0-0.97668-0.17792-0.30284-0.50348-0.48455-0.85175-0.48077h-7.4803-0.09085-0.09085-0.09085zm-11.175 0.45427c-0.53376 0.07571-0.90853 0.57162-0.83282 1.1054 0.075711 0.53376 0.57162 0.90854 1.1054 0.83282h6.5717c0.34827 0.0038 0.67383-0.17792 0.85175-0.48077 0.17414-0.30284 0.17414-0.67383 0-0.97667-0.17792-0.30284-0.50348-0.48455-0.85175-0.48077h-6.5717-0.090853-0.090853-0.090854z" stroke-width=".9691"/>
</svg>
