<?xml version="1.0" encoding="UTF-8"?>
<!-- Created with Inkscape (http://www.inkscape.org/) -->
<svg width="48" height="48" version="1.1" viewBox="0 0 12.7 12.7" xml:space="preserve" xmlns="http://www.w3.org/2000/svg">
<style>
    @media (prefers-color-scheme: dark) {
      path {
        fill: white !important;
      }
    }
</style>
<path d="m6.3137 12.462c-3.7997-1.0612-5.7202-5.3208-3.9917-8.8536 1.3679-2.796 4.7739-4.2133 7.6733-3.1932 0.81481 0.28668 0.81626 0.56172 0.0052251 0.99027-0.9069 0.4792-1.9649 1.6379-2.456 2.6898-0.34627 0.74164-0.40117 1.0546-0.40117 2.2868 0 1.2322 0.054902 1.5451 0.40117 2.2868 0.49113 1.0519 1.5491 2.2106 2.456 2.6898 0.38276 0.20225 0.65961 0.44942 0.63659 0.56834-0.11376 0.58764-2.9003 0.93252-4.3233 0.53509zm3.1002-0.56495c0.049286-0.049287-0.32364-0.47221-0.82873-0.93983-2.0964-1.9409-2.6668-4.707-1.4929-7.2393 0.18282-0.39433 0.79456-1.1825 1.3594-1.7516 0.56487-0.56903 0.98536-1.0762 0.93442-1.127-0.050933-0.050823-0.71237-0.090832-1.4699-0.088909-1.1704 0.0029688-1.5063 0.063445-2.2365 0.40272-1.1969 0.55611-2.2735 1.6118-2.8612 2.8056-0.44641 0.90678-0.48693 1.1088-0.48551 2.42 0.00131 1.231 0.05713 1.5497 0.39977 2.2835 0.72195 1.546 2.154 2.7906 3.7204 3.2333 0.66034 0.18661 2.7744 0.18767 2.9606 0.0015z" stroke-width=".56794"/></svg>
