<?xml version="1.0" encoding="UTF-8"?>
<!-- Created with Inkscape (http://www.inkscape.org/) -->
<svg width="250" height="250" version="1.1" viewBox="0 0 66.146 66.146" xml:space="preserve" xmlns="http://www.w3.org/2000/svg">
  <style>
    @media (prefers-color-scheme: dark) {
      #square-message {
        stroke: white !important;
      }
      #round-message {
        stroke: white !important;
      }
      #text-name {
        fill: white !important;
      }
    }
  </style>
  <g stroke-linecap="round" stroke-linejoin="round">
    <path id="square-message" d="m40.909 17.316c0.07957 1.2506 0.18285 0.93965 0.18285 2.3862 0 4.9017-1.0502 8.8478-2.3547 8.8478h-21.979l-4.2798 5.0213 1.3954-5.0213h-4.2611c-1.3045 0-2.3547-3.9461-2.3547-8.8478 0-4.9017 1.0502-8.8478 2.3547-8.8478h29.125c0.91952 0 1.4047 0.46808 1.7928 3.3421" fill="none" stroke="#000" stroke-width="1.16"/>
    <path id="round-message" d="m32.493 26.326c0-5.8087 4.832-10.787 10.409-10.787h6.2503c5.7667 0 10.409 4.6763 10.409 10.485 0 3.6309-1.8139 6.8194-4.5825 8.6998-0.39798 0.27031 2.2334 5.2284 1.7985 5.4421-0.39178 0.19251-3.8465-4.3538-4.2643-4.2112-1.0535 0.35953-2.1837 0.55436-3.3608 0.55436h-6.2503c-4.8778 0-8.9848-1.5868-10.125-6.1336" fill="none" stroke="#000" stroke-width="1.2719"/>
    <path id="text-name" d="m6.7375 49.933q0 0.24087-0.081803 0.43174-0.081803 0.19088-0.22269 0.34085-0.14088 0.14543-0.32721 0.24996-0.18633 0.10453-0.39993 0.1727-0.20905 0.06817-0.43174 0.09998t-0.43628 0.03181q-0.46355 0-0.85439-0.0409-0.38629-0.0409-0.75895-0.13179v-0.72714q0.39993 0.11362 0.79531 0.1727 0.39538 0.05908 0.78622 0.05908 0.56808 0 0.84076-0.15452 0.27268-0.15452 0.27268-0.44083 0-0.1227-0.045446-0.21814-0.040902-0.09998-0.15452-0.18633-0.11362-0.09089-0.35448-0.18633-0.23632-0.095437-0.64988-0.21814-0.30904-0.090893-0.57262-0.20451-0.25904-0.11816-0.44992-0.27722t-0.29995-0.37266q-0.10907-0.2136-0.10907-0.50445 0-0.19088 0.086348-0.41811 0.090893-0.22723 0.30449-0.42265 0.2136-0.19542 0.57717-0.32267 0.36357-0.13179 0.90893-0.13179 0.26813 0 0.59535 0.03181 0.32721 0.02727 0.6817 0.09998v0.70442q-0.37266-0.09089-0.70896-0.13179-0.33176-0.04545-0.57717-0.04545-0.2954 0-0.49991 0.04545-0.19996 0.04545-0.32721 0.12725-0.12271 0.07726-0.17724 0.18633-0.054536 0.10453-0.054536 0.22723 0 0.1227 0.045446 0.22269 0.049991 0.09998 0.17724 0.19542 0.13179 0.09089 0.36357 0.18633 0.23178 0.09089 0.60444 0.19996 0.40447 0.11816 0.6817 0.24996 0.27722 0.12725 0.44992 0.28631 0.1727 0.15906 0.24541 0.35903 0.077259 0.19996 0.077259 0.45446zm5.0491 1.0771q-0.30904 0.11816-0.63625 0.1727-0.32267 0.05908-0.66806 0.05908-1.0816 0-1.6679-0.58626-0.58171-0.58626-0.58171-1.7133 0-0.54081 0.16815-0.98164 0.16815-0.44083 0.47264-0.75441 0.30449-0.31358 0.72714-0.48173 0.42265-0.1727 0.93165-0.1727 0.35448 0 0.66352 0.04999t0.5908 0.16361v0.75441q-0.2954-0.15452-0.60444-0.22269-0.30449-0.07271-0.6317-0.07271-0.30449 0-0.57717 0.11816-0.26813 0.11362-0.47264 0.33176-0.20451 0.21814-0.32267 0.53172t-0.11816 0.70896q0 0.82712 0.39993 1.2407 0.40447 0.40902 1.118 0.40902 0.32267 0 0.62262-0.07271 0.30449-0.07271 0.58626-0.21814zm5.24 0.16815h-0.79077v-2.9131q0-0.52718-0.19996-0.78622-0.19542-0.26359-0.56354-0.26359-0.15906 0-0.29994 0.04545-0.13634 0.0409-0.28631 0.14997-0.14997 0.10453-0.32721 0.28631t-0.40902 0.45446v3.0267h-0.79077v-6.4216h0.79077v1.8588l-0.02727 0.71805q0.18633-0.22269 0.36357-0.37266 0.18178-0.15452 0.35903-0.24995 0.18178-0.09544 0.36812-0.13634 0.18633-0.0409 0.38629-0.0409 0.6817 0 1.0544 0.41811 0.37266 0.41356 0.37266 1.2498zm5.4217-2.3178q0 0.53172-0.14997 0.9771-0.14997 0.44083-0.43174 0.75895-0.28177 0.31358-0.68624 0.49082-0.40447 0.1727-0.91802 0.1727-0.49082 0-0.88166-0.14997-0.38629-0.15452-0.65897-0.44992-0.26813-0.2954-0.41356-0.73169-0.14088-0.43628-0.14088-1.0044 0-0.53172 0.14997-0.96801 0.14997-0.44083 0.43174-0.75441 0.28177-0.31812 0.68624-0.49082 0.40447-0.17724 0.91802-0.17724 0.49082 0 0.87711 0.15452 0.39084 0.14997 0.65897 0.44538 0.27268 0.29086 0.41356 0.72714 0.14543 0.43628 0.14543 0.99982zm-0.80894 0.03636q0-0.42265-0.09544-0.73623-0.09089-0.31812-0.26359-0.52718-0.1727-0.2136-0.42265-0.31812-0.24541-0.10907-0.5499-0.10907-0.35448 0-0.60898 0.14088-0.24996 0.13634-0.41356 0.36812-0.15906 0.23178-0.23632 0.54081-0.07271 0.30449-0.07271 0.64079 0 0.42265 0.09089 0.74078 0.09544 0.31812 0.26813 0.53172 0.1727 0.20905 0.41811 0.31812 0.24541 0.10453 0.55444 0.10453 0.35448 0 0.60444-0.13634 0.2545-0.14088 0.41356-0.37266 0.16361-0.23178 0.23632-0.53627 0.07726-0.30904 0.07726-0.64988zm5.9262-0.03636q0 0.53172-0.14997 0.9771-0.14997 0.44083-0.43174 0.75895-0.28177 0.31358-0.68624 0.49082-0.40447 0.1727-0.91802 0.1727-0.49082 0-0.88166-0.14997-0.38629-0.15452-0.65897-0.44992-0.26813-0.2954-0.41356-0.73169-0.14088-0.43628-0.14088-1.0044 0-0.53172 0.14997-0.96801 0.14997-0.44083 0.43174-0.75441 0.28177-0.31812 0.68624-0.49082 0.40447-0.17724 0.91802-0.17724 0.49082 0 0.87711 0.15452 0.39084 0.14997 0.65897 0.44538 0.27268 0.29086 0.41356 0.72714 0.14543 0.43628 0.14543 0.99982zm-0.80894 0.03636q0-0.42265-0.09544-0.73623-0.09089-0.31812-0.26359-0.52718-0.1727-0.2136-0.42265-0.31812-0.24541-0.10907-0.5499-0.10907-0.35448 0-0.60898 0.14088-0.24996 0.13634-0.41356 0.36812-0.15906 0.23178-0.23632 0.54081-0.07271 0.30449-0.07271 0.64079 0 0.42265 0.09089 0.74078 0.09544 0.31812 0.26813 0.53172 0.1727 0.20905 0.41811 0.31812 0.24541 0.10453 0.55444 0.10453 0.35448 0 0.60444-0.13634 0.2545-0.14088 0.41356-0.37266 0.16361-0.23178 0.23632-0.53627 0.07726-0.30904 0.07726-0.64988zm3.5085-3.4903h-1.3498v-0.64988h2.1496v5.7626h1.3588v0.65897h-3.6584v-0.65897h1.4997zm12.534 5.7717h-1.0544l-1.7315-3.7039-0.49991-1.1907v4.8946h-0.75441v-5.9398h1.0407l1.6497 3.5085 0.59535 1.3588v-4.8673h0.75441zm5.2354-2.3178q0 0.53172-0.14997 0.9771-0.14997 0.44083-0.43174 0.75895-0.28177 0.31358-0.68624 0.49082-0.40447 0.1727-0.91802 0.1727-0.49082 0-0.88166-0.14997-0.38629-0.15452-0.65897-0.44992-0.26813-0.2954-0.41356-0.73169-0.14088-0.43628-0.14088-1.0044 0-0.53172 0.14997-0.96801 0.14997-0.44083 0.43174-0.75441 0.28177-0.31812 0.68624-0.49082 0.40447-0.17724 0.91802-0.17724 0.49082 0 0.87711 0.15452 0.39084 0.14997 0.65897 0.44538 0.27268 0.29086 0.41356 0.72714 0.14543 0.43628 0.14543 0.99982zm-0.80894 0.03636q0-0.42265-0.09544-0.73623-0.09089-0.31812-0.26359-0.52718-0.1727-0.2136-0.42265-0.31812-0.24541-0.10907-0.5499-0.10907-0.35448 0-0.60898 0.14088-0.24996 0.13634-0.41356 0.36812-0.15906 0.23178-0.23632 0.54081-0.07271 0.30449-0.07271 0.64079 0 0.42265 0.09089 0.74078 0.09544 0.31812 0.26813 0.53172 0.1727 0.20905 0.41811 0.31812 0.24541 0.10453 0.55445 0.10453 0.35448 0 0.60444-0.13634 0.2545-0.14088 0.41356-0.37266 0.16361-0.23178 0.23632-0.53627 0.07726-0.30904 0.07726-0.64988zm3.7493 0.84985q0.15452 0 0.29086 0.05908 0.14088 0.05908 0.24087 0.16361 0.10453 0.10453 0.16361 0.24541 0.05908 0.13634 0.05908 0.2954 0 0.15452-0.05908 0.29086t-0.16361 0.24087q-0.09998 0.09998-0.24087 0.15906-0.13634 0.05908-0.29086 0.05908-0.15906 0-0.2954-0.05908t-0.24087-0.15906q-0.09998-0.10453-0.15906-0.24087-0.05908-0.13634-0.05908-0.29086 0-0.15906 0.05908-0.2954 0.05908-0.14088 0.15906-0.24541 0.10453-0.10453 0.24087-0.16361 0.13634-0.05908 0.2954-0.05908zm12.589 0.11816h-1.0135v1.3134h-0.80894v-1.3134h-2.8586v-0.69533l2.5314-3.9311h1.1362v3.9311h1.0135zm-1.8224-3.8629-2.0678 3.1676h2.0678z" stroke-width=".096952" aria-label="school No. 4"/>
  </g>
</svg>
