<?xml version="1.0" encoding="UTF-8"?>
<!-- Created with Inkscape (http://www.inkscape.org/) -->
<svg id="logo-no-text" width="250" height="250" version="1.1" viewBox="0 0 66.146 66.146" xml:space="preserve" xmlns="http://www.w3.org/2000/svg">
  <style>
    @media (prefers-color-scheme: dark) {
      path {
        stroke: white !important;
      }
    }
  </style>
  <g id="logo-no-text-layer" fill="none" stroke="#000" stroke-linecap="round" stroke-linejoin="round">
    <path id="square-message" d="m41.186 24.45c0.08802 1.3834 0.20227 1.0394 0.20227 2.6396 0 5.4222-1.1617 9.7873-2.6047 9.7873h-24.313l-4.7343 5.5545 1.5436-5.5545h-4.7135c-1.443 0-2.6047-4.3652-2.6047-9.7873 0-5.4222 1.1617-9.7873 2.6047-9.7873h32.217c1.0172 0 1.5538 0.51778 1.9831 3.6969" stroke-width="1.2832"/>
    <path id="round-message" d="m31.876 34.417c0-6.4255 5.3451-11.932 11.514-11.932h6.914c6.379 0 11.514 5.1729 11.514 11.598 0 4.0165-2.0066 7.5435-5.0691 9.6236-0.44024 0.29902 2.4705 5.7836 1.9895 6.0199-0.43338 0.21295-4.255-4.8161-4.7171-4.6584-1.1653 0.39771-2.4156 0.61323-3.7177 0.61323h-6.914c-5.3958 0-9.9389-1.7552-11.2-6.7849" stroke-width="1.4069"/>
  </g>
</svg>
