<?xml version="1.0" encoding="UTF-8" standalone="no"?>
<!-- Created with Inkscape (http://www.inkscape.org/) -->

<svg
   width="56.027416"
   height="61.918892"
   viewBox="0 0 14.82392 16.382706"
   version="1.1"
   id="svg1"
   xml:space="preserve"
   inkscape:version="1.4 (86a8ad7, 2024-10-11)"
   sodipodi:docname="icon-not-file.svg"
   xmlns:inkscape="http://www.inkscape.org/namespaces/inkscape"
   xmlns:sodipodi="http://sodipodi.sourceforge.net/DTD/sodipodi-0.dtd"
   xmlns="http://www.w3.org/2000/svg"
   xmlns:svg="http://www.w3.org/2000/svg"><sodipodi:namedview
     id="namedview1"
     pagecolor="#494949"
     bordercolor="#000000"
     borderopacity="0.25"
     inkscape:showpageshadow="2"
     inkscape:pageopacity="0.0"
     inkscape:pagecheckerboard="0"
     inkscape:deskcolor="#d1d1d1"
     inkscape:document-units="mm"
     inkscape:zoom="8.1336326"
     inkscape:cx="12.233156"
     inkscape:cy="30.675101"
     inkscape:window-width="1920"
     inkscape:window-height="1009"
     inkscape:window-x="-8"
     inkscape:window-y="-8"
     inkscape:window-maximized="1"
     inkscape:current-layer="layer1" /><defs
     id="defs1" /><g
     inkscape:label="Слой 1"
     inkscape:groupmode="layer"
     id="layer1"
     transform="translate(-1.6083661,-0.37798454)"><path
       style="fill:#000000"
       id="path2"
       d="" /><path
       style="fill:#000000"
       id="path1"
       d="" /><path
       style="fill:#fd0000;stroke-width:1.03685;fill-opacity:1"
       d="m 11.220987,16.373805 c -0.364026,-0.0364 -0.800304,-0.601413 -1.4870194,-0.666203 -0.7864684,-0.07419 -3.7252903,0.01079 -3.7252903,-0.03812 L 1.7565313,15.6158 1.6824487,9.5940127 1.6083661,3.5722247 3.1888204,1.9751042 4.7692758,0.37798454 l 4.6661023,0.0747773 4.6661029,0.0747773 0.07504,4.72602806 c 0.07029,4.4279778 0.110156,4.7448246 0.631927,5.0240678 0.306291,0.163922 0.796724,0.691372 1.089852,1.172111 0.293127,0.480739 0.53342,1.217521 0.533985,1.637294 5.64e-4,0.419774 -0.173838,1.181731 -0.38756,1.693238 -0.21372,0.511508 -0.702815,1.135906 -1.086876,1.387552 -0.38406,0.251646 -1.165931,0.509764 -1.737489,0.573596 -0.653006,0.07293 -1.396017,-0.06369 -1.999359,-0.367618 z m 3.026632,-0.488318 c 0.4426,-0.228879 0.991992,-0.77827 1.22087,-1.220871 0.228878,-0.442601 0.416142,-1.06389 0.416142,-1.38064 0,-0.316751 -0.187264,-0.938039 -0.416142,-1.38064 -0.228878,-0.4426 -0.77827,-0.991993 -1.22087,-1.220871 -0.442601,-0.228878 -1.063889,-0.416141 -1.380641,-0.416141 -0.31675,0 -0.938038,0.187263 -1.380639,0.416141 -0.4426,0.228878 -0.991993,0.778271 -1.220872,1.220871 -0.228877,0.442601 -0.4161414,1.063889 -0.4161414,1.38064 0,0.31675 0.1867264,0.936998 0.4149484,1.378328 0.22822,0.441331 0.752879,0.985781 1.16591,1.209889 0.413031,0.224107 1.034856,0.412411 1.381835,0.418452 0.346978,0.006 0.992999,-0.176281 1.4356,-0.405158 z m -2.7523,-1.078704 c 0,-0.134811 0.204307,-0.470868 0.454016,-0.746793 0.422467,-0.466821 0.422467,-0.536544 0,-1.003364 -0.249709,-0.275925 -0.454016,-0.667793 -0.454016,-0.870816 0,-0.141594 0.08821,-0.163163 0.252963,-0.06936 0.110228,0.06276 0.254723,0.177167 0.429992,0.341825 0.663779,0.623588 0.698489,0.627545 1.236177,0.140945 0.30427,-0.275361 0.617171,-0.436706 0.695333,-0.358544 0.07817,0.07817 -0.01027,0.340007 -0.240239,0.530866 -0.22997,0.190857 -0.453902,0.434753 -0.453902,0.593001 0,0.158248 0.204993,0.514237 0.455538,0.791088 0.250546,0.27685 0.391395,0.555582 0.291137,0.655841 -0.100263,0.100263 -0.423447,-0.160987 -0.76921,-0.485817 0.02493,-0.05962 -0.432785,-0.400114 -0.670396,-0.387876 -0.262265,0.01351 -0.563016,0.551092 -0.563016,0.551092 -0.332615,0.332615 -0.664377,0.452718 -0.664377,0.317907 z M 9.5846455,14.673671 C 9.4284541,14.381824 9.3006619,13.822338 9.3006619,13.430366 c 0,-0.391972 0.1748629,-1.131182 0.3885837,-1.642689 0.2137222,-0.511507 0.7028164,-1.135907 1.0868784,-1.387551 0.384059,-0.251646 1.196792,-0.5244024 1.806071,-0.6061234 l 1.10778,-0.1485845 V 5.292227 0.93903522 H 9.5886841 5.4873939 L 5.4051202,2.5164443 5.3228465,4.0938534 3.7454374,4.1761271 2.1680283,4.2584007 v 5.4729503 5.47295 h 3.8502999 c 3.72167,0 3.8408127,-0.01773 3.5663163,-0.53063 z M 2.7166928,13.558307 c 0,-0.301765 0.1234499,-0.548664 0.2743317,-0.548664 0.1508828,0 0.2743327,0.246899 0.2743327,0.548664 0,0.301767 -0.1234499,0.548666 -0.2743327,0.548666 -0.1508818,0 -0.2743317,-0.246899 -0.2743317,-0.548666 z m 1.3716605,0 c 0,-0.301765 0.1234489,-0.548664 0.2743318,-0.548664 0.1508827,0 0.2743316,0.246899 0.2743316,0.548664 0,0.301767 -0.1234489,0.548666 -0.2743316,0.548666 -0.1508829,0 -0.2743318,-0.246899 -0.2743318,-0.548666 z m 1.3716595,0 c 0,-0.301765 0.12345,-0.548664 0.2743329,-0.548664 0.1508827,0 0.2743316,0.246899 0.2743316,0.548664 0,0.301767 -0.1234489,0.548666 -0.2743316,0.548666 -0.1508829,0 -0.2743329,-0.246899 -0.2743329,-0.548666 z m 1.3716606,0 c 0,-0.301765 0.1234489,-0.548664 0.2743318,-0.548664 0.1508827,0 0.2743327,0.246899 0.2743327,0.548664 0,0.301767 -0.12345,0.548666 -0.2743327,0.548666 -0.1508829,0 -0.2743318,-0.246899 -0.2743318,-0.548666 z m 1.3716606,0 c 0,-0.301765 0.1234489,-0.548664 0.2743317,-0.548664 0.1508828,0 0.2743317,0.246899 0.2743317,0.548664 0,0.301767 -0.1234489,0.548666 -0.2743317,0.548666 -0.1508828,0 -0.2743317,-0.246899 -0.2743317,-0.548666 z M 4.3626851,9.4433282 c 0,-0.1567612 0.8229961,-0.2743321 1.9203239,-0.2743321 1.0973289,0 1.920325,0.1175709 1.920325,0.2743321 0,0.1567611 -0.8229961,0.2743325 -1.920325,0.2743325 -1.0973278,0 -1.9203239,-0.1175714 -1.9203239,-0.2743325 z m 0,-1.0973282 c 0,-0.1676471 1.2802159,-0.2743323 3.2919844,-0.2743323 2.0117686,0 3.2919845,0.1066852 3.2919845,0.2743323 0,0.1676473 -1.2802159,0.2743321 -3.2919845,0.2743321 -2.0117685,0 -3.2919844,-0.1066848 -3.2919844,-0.2743321 z m 0,-1.6459918 c 0,-0.1662624 1.1887723,-0.2743327 3.0176528,-0.2743327 1.8288794,0 3.0176531,0.1080703 3.0176531,0.2743327 0,0.1662612 -1.1887737,0.2743316 -3.0176531,0.2743316 -1.8288805,0 -3.0176528,-0.1080704 -3.0176528,-0.2743316 z m 0,-1.0973289 c 0,-0.162567 1.0058842,-0.2743317 2.4689883,-0.2743317 1.4631041,0 2.4689885,0.1117647 2.4689885,0.2743317 0,0.162567 -1.0058844,0.2743328 -2.4689885,0.2743328 -1.4631041,0 -2.4689883,-0.1117658 -2.4689883,-0.2743328 z m 5.4866405,0 c 0,-0.1508818 0.3703484,-0.2743317 0.8229964,-0.2743317 0.452648,0 0.822997,0.1234499 0.822997,0.2743317 0,0.1508828 -0.370349,0.2743328 -0.822997,0.2743328 -0.452648,0 -0.8229964,-0.12345 -0.8229964,-0.2743328 z M 4.9113494,2.4478612 c 0,-0.6789722 -0.03602,-1.2344943 -0.080044,-1.2344943 -0.044025,0 -0.6252521,0.5555221 -1.291613,1.2344943 L 2.3281277,3.6823553 h 1.291613 1.2916119 z"
       id="path4"
       sodipodi:nodetypes="sscccccccccssssscssssssssssssscsccccsccccccccsccssssscccccccccccssssssssssssssssssssssssssssssssssssssssssscccccssssscsscccc" /></g></svg>
