<?xml version="1.0" encoding="UTF-8" standalone="no"?>
<!-- Created with Inkscape (http://www.inkscape.org/) -->

<svg
   width="28.05698"
   height="25.996262"
   viewBox="0 0 7.4234095 6.8781777"
   version="1.1"
   id="svg1"
   xml:space="preserve"
   inkscape:version="1.4 (86a8ad7, 2024-10-11)"
   sodipodi:docname="icon-create-chat.svg"
   xmlns:inkscape="http://www.inkscape.org/namespaces/inkscape"
   xmlns:sodipodi="http://sodipodi.sourceforge.net/DTD/sodipodi-0.dtd"
   xmlns="http://www.w3.org/2000/svg"
   xmlns:svg="http://www.w3.org/2000/svg">
<style>
    @media (prefers-color-scheme: dark) {
      path {
        fill: white !important;
      }
    }
  </style>

<sodipodi:namedview
     id="namedview1"
     pagecolor="#ffffff"
     bordercolor="#000000"
     borderopacity="0.25"
     inkscape:showpageshadow="2"
     inkscape:pageopacity="0.0"
     inkscape:pagecheckerboard="0"
     inkscape:deskcolor="#d1d1d1"
     inkscape:document-units="mm"
     inkscape:zoom="11.502694"
     inkscape:cx="5.6508503"
     inkscape:cy="14.127126"
     inkscape:window-width="1920"
     inkscape:window-height="1009"
     inkscape:window-x="-8"
     inkscape:window-y="-8"
     inkscape:window-maximized="1"
     inkscape:current-layer="layer1" /><defs
     id="defs1" /><g
     inkscape:label="Слой 1"
     inkscape:groupmode="layer"
     id="layer1"
     transform="translate(-2.8446929,-3.037978)"><path
       style="fill:#000000"
       d="M 5.7751799,9.3336126 C 5.3420038,8.8922383 5.0698027,8.7310271 4.6519203,8.6683618 3.8889948,8.5539541 3.2685759,8.1429825 3.0427076,7.6024036 2.7643345,6.936163 2.7839981,4.6098276 3.0731532,4.0004783 3.489728,3.1226121 3.7960147,3.037978 6.5563973,3.037978 c 2.7603827,0 3.0666693,0.084634 3.4832437,0.9625003 0.289156,0.6093493 0.308819,2.9356847 0.03045,3.6019253 C 9.844219,8.1429825 9.2237998,8.5539541 8.4608743,8.6683618 8.0429919,8.7310271 7.7707908,8.8922383 7.3376147,9.3336126 7.0231674,9.6540111 6.6716196,9.9161557 6.5563973,9.9161557 c -0.1152222,0 -0.46677,-0.2621446 -0.7812174,-0.5825431 z M 7.1363526,8.7412576 C 7.5578247,8.309631 7.7452983,8.2174806 8.312896,8.1629416 8.858811,8.1104861 9.0592359,8.018427 9.3597382,7.6821065 c 0.3585595,-0.4012978 0.371659,-0.4661376 0.371659,-1.839644 0,-2.2213949 -0.2467707,-2.4085985 -3.1749999,-2.4085985 -2.9282291,0 -3.1749998,0.1872036 -3.1749998,2.4085985 0,1.3735064 0.013099,1.4383462 0.3716589,1.839644 C 4.0535588,8.018427 4.2539837,8.1104861 4.7998986,8.1629416 5.3674964,8.2174806 5.55497,8.309631 5.9764421,8.7412576 6.2521902,9.0236493 6.51317,9.254697 6.5563973,9.254697 c 0.043227,0 0.3042072,-0.2310477 0.5799553,-0.5134394 z M 6.3827645,7.3171754 C 6.3327417,7.2671526 6.291814,6.971518 6.291814,6.6602095 V 6.094194 L 5.6634286,6.0538727 C 5.2109789,6.0248405 5.0350432,5.9579927 5.0350432,5.8151139 c 0,-0.1425437 0.1750355,-0.2097147 0.6214214,-0.2384744 L 6.277886,5.5366025 6.317923,4.9151812 c 0.02876,-0.446386 0.095931,-0.6214214 0.2384744,-0.6214214 0.1425437,0 0.2097147,0.1750354 0.2384744,0.6214214 l 0.040037,0.6214213 0.6214214,0.040037 c 0.446386,0.02876 0.6214214,0.095931 0.6214214,0.2384744 0,0.1425437 -0.1750354,0.2097146 -0.6214214,0.2384744 l -0.6214215,0.040037 -0.040037,0.6110802 c -0.03756,0.573282 -0.2039735,0.8206037 -0.4121072,0.6124699 z"
       id="path1" /></g></svg>
