<?xml version="1.0" encoding="UTF-8" standalone="no"?>
<!-- Created with Inkscape (http://www.inkscape.org/) -->

<svg
   width="50"
   height="50"
   viewBox="0 0 13.229166 13.229167"
   version="1.1"
   id="svg1"
   xml:space="preserve"
   inkscape:version="1.4 (86a8ad7, 2024-10-11)"
   sodipodi:docname="icon-user-dark.svg"
   xmlns:inkscape="http://www.inkscape.org/namespaces/inkscape"
   xmlns:sodipodi="http://sodipodi.sourceforge.net/DTD/sodipodi-0.dtd"
   xmlns="http://www.w3.org/2000/svg"
   xmlns:svg="http://www.w3.org/2000/svg"><sodipodi:namedview
     id="namedview1"
     pagecolor="#ffffff"
     bordercolor="#000000"
     borderopacity="0.25"
     inkscape:showpageshadow="2"
     inkscape:pageopacity="0.0"
     inkscape:pagecheckerboard="0"
     inkscape:deskcolor="#d1d1d1"
     inkscape:document-units="mm"
     inkscape:zoom="8.6174175"
     inkscape:cx="37.772337"
     inkscape:cy="32.434311"
     inkscape:window-width="1920"
     inkscape:window-height="1057"
     inkscape:window-x="-8"
     inkscape:window-y="-8"
     inkscape:window-maximized="1"
     inkscape:current-layer="layer1" /><defs
     id="defs1" /><g
     inkscape:label="Слой 1"
     inkscape:groupmode="layer"
     id="layer1">
<style>
    @media (prefers-color-scheme: dark) {
      path {
        fill: white !important;
      }
    }
</style><path
       style="fill:#000000;stroke-width:1.99824"
       d="M 1.4111611,12.745022 C 1.0872422,12.421103 0.9555883,11.985734 0.9555883,11.238478 c 0,-0.638011 0.1837785,-1.3779613 0.4677107,-1.8831505 C 1.68054,8.8976289 2.2624268,8.2686494 2.7163811,7.957595 3.5028584,7.4186922 3.6989674,7.3920416 6.8780337,7.3920416 c 3.1790663,0 3.3751763,0.026651 4.1616533,0.5655534 0.453955,0.3110544 1.035842,0.9400339 1.293084,1.3977325 0.283932,0.5051892 0.467711,1.2451395 0.467711,1.8831505 0,0.747256 -0.131645,1.182625 -0.455574,1.506544 -0.427962,0.427962 -0.759289,0.455572 -5.4668743,0.455572 -4.7075846,0 -5.0389103,-0.02761 -5.4668726,-0.455572 z M 11.618273,11.336481 C 11.657113,11.000273 11.524003,10.406342 11.32248,10.016636 11.120956,9.6269298 10.627911,9.1079876 10.226825,8.8634313 9.6151584,8.4904767 9.0752109,8.4187833 6.8780337,8.4187833 c -2.1971771,0 -2.7371247,0.071693 -3.3487899,0.444648 C 3.128158,9.1079876 2.6412645,9.6150334 2.4472584,9.9901998 2.2532525,10.365366 2.0945202,10.916586 2.0945202,11.215134 c 0,0.298547 0.070398,0.613211 0.1564385,0.699252 0.08604,0.08604 2.2129965,0.128751 4.7265676,0.09491 4.5701287,-0.06153 4.5701287,-0.06153 4.6407467,-0.672815 z M 4.7881483,6.4870946 C 4.2437367,6.1171583 3.8243253,5.5705946 3.5661939,4.8946894 3.3095414,4.2226544 3.2210792,3.5702759 3.3112539,3.0145946 3.387204,2.5465683 3.6408279,1.9049743 3.8748628,1.5888302 4.1088972,1.2726862 4.6392511,0.78338918 5.0534271,0.5015035 5.5708424,0.14935336 6.1417687,-0.01101591 6.8780337,-0.01101591 c 0.736265,0 1.3071913,0.16036907 1.8246086,0.51251941 0.414176,0.28188568 0.9445299,0.7711827 1.1785643,1.0873267 0.2340344,0.3161441 0.4876584,0.9577381 0.5636094,1.4257644 0.09018,0.5556813 0.0017,1.2080598 -0.25494,1.8800948 C 9.9317441,5.5705946 9.5123307,6.1171583 8.9679211,6.4870946 8.3329052,6.9185992 7.8440268,7.050362 6.8780337,7.050362 5.9120426,7.050362 5.4231642,6.9185998 4.7881483,6.4870946 Z M 8.4783953,5.2572584 C 8.8381891,4.8974638 9.2006806,4.3317028 9.2839294,4.0000117 9.3680555,3.6648512 9.3054106,3.0833524 9.1429134,2.6910589 8.9820967,2.3028261 8.5348437,1.7926796 8.1490108,1.5574 7.7631798,1.3221206 7.1912405,1.1296189 6.8780337,1.1296189 6.5648269,1.1296189 5.9928876,1.3221198 5.6070566,1.5574 5.2212257,1.7926796 4.7739727,2.3028261 4.61316,2.6910589 4.4506628,3.0833524 4.3880199,3.6648512 4.472144,4.0000117 c 0.083247,0.3316911 0.4457403,0.8974521 0.8055341,1.2572467 0.5103914,0.5103903 0.8621363,0.6541717 1.6003616,0.6541717 0.7382253,0 1.0899721,-0.1437816 1.6003616,-0.6541717 z"
       id="path11" /></g></svg>
