<?xml version="1.0" encoding="UTF-8" standalone="no"?>
<!-- Created with Inkscape (http://www.inkscape.org/) -->

<svg
   width="50"
   height="50"
   viewBox="0 0 13.229166 13.229167"
   version="1.1"
   id="svg1"
   xml:space="preserve"
   inkscape:version="1.4 (86a8ad7, 2024-10-11)"
   sodipodi:docname="icon-fix-dark.svg"
   xmlns:inkscape="http://www.inkscape.org/namespaces/inkscape"
   xmlns:sodipodi="http://sodipodi.sourceforge.net/DTD/sodipodi-0.dtd"
   xmlns="http://www.w3.org/2000/svg"
   xmlns:svg="http://www.w3.org/2000/svg"><sodipodi:namedview
     id="namedview1"
     pagecolor="#ffffff"
     bordercolor="#000000"
     borderopacity="0.25"
     inkscape:showpageshadow="2"
     inkscape:pageopacity="0.0"
     inkscape:pagecheckerboard="0"
     inkscape:deskcolor="#d1d1d1"
     inkscape:document-units="mm"
     inkscape:zoom="12.186869"
     inkscape:cx="18.011189"
     inkscape:cy="19.816411"
     inkscape:window-width="1920"
     inkscape:window-height="1057"
     inkscape:window-x="-8"
     inkscape:window-y="-8"
     inkscape:window-maximized="1"
     inkscape:current-layer="layer1" /><defs
     id="defs1" /><g
     inkscape:label="Слой 1"
     inkscape:groupmode="layer"
     id="layer1">
<style>
    @media (prefers-color-scheme: dark) {
      path {
        fill: white !important;
      }
    }
</style>
<path
       style="fill:#000000;stroke-width:4.61383;stroke-dasharray:none"
       d="M 0.86065974,12.343089 C -0.67081662,10.811613 0.22216764,8.1322929 2.3924978,7.7469454 2.920526,7.6531918 3.6617066,7.2883396 4.0395576,6.9361638 4.5149437,6.493086 4.7841856,6.3890812 4.9136232,6.5985211 5.2068765,7.073019 3.7537644,8.4200981 2.9486664,8.4200981 c -1.7114872,0 -2.70548636,2.0575239 -1.6126462,3.3380889 1.1525089,1.350483 3.4476226,0.424939 3.4476226,-1.390312 0,-0.73896 0.8581914,-1.9477769 1.3828094,-1.9477769 0.3282088,0 0.183039,0.7130127 -0.2119184,1.0407916 C 5.7398705,9.6390429 5.56424,10.070892 5.56424,10.420547 c 0,2.39468 -3.0037025,3.622409 -4.70358026,1.922542 z M 8.7742264,11.217233 C 7.7562603,10.179693 6.7890868,9.0673482 6.6249505,8.7453532 6.460815,8.4233627 6.1591315,8.1599038 5.954533,8.1599038 c -0.4499536,0 -0.8886716,-0.7752575 -0.7147273,-1.2630082 0.158095,-0.4433 -3.0174564,-3.6807524 -3.6103697,-3.6807524 -0.4986602,0 -1.59310292,-1.693281 -1.47653093,-2.28443529 C 0.38380694,-0.23923191 2.9425351,0.3040275 3.1805391,1.5745253 3.2812481,2.1121385 6.3213589,5.2997915 6.7276105,5.2937456 6.87485,5.2915541 6.819694,5.1786989 6.6050306,5.0429542 6.2617826,4.8259013 6.2666773,4.7441933 6.645627,4.3651369 6.9840161,4.0266502 7.0220718,3.7779197 6.8228831,3.2065199 6.294917,1.692005 7.9734296,0.09376845 10.091975,0.09376845 c 1.105942,0 1.164991,0.21494758 0.285924,1.04079245 -0.8151427,0.7657879 -0.8148672,1.0558593 0.0017,1.8230314 0.652251,0.6127564 0.652251,0.6127564 1.380277,-0.084746 0.988828,-0.9473577 1.350049,-0.8868576 1.350049,0.2261137 0,1.5391481 -1.191073,3.2697049 -2.247616,3.2656479 C 8.4050863,6.3551916 8.0343197,6.2072502 8.8244166,5.5515254 9.1322029,5.2960881 9.3714906,5.2891326 9.8800788,5.5208783 10.642864,5.868426 11.300455,5.6101548 11.925741,4.7174343 12.520092,3.8688813 12.47135,3.267219 11.853521,3.8263227 10.753468,4.8218576 8.2554714,2.7419828 9.0658193,1.5052352 9.6292562,0.64532047 9.1377736,0.71102088 8.1052453,1.6336511 7.2982835,2.3546943 7.2716694,2.4357716 7.5766662,3.2439086 7.8425059,3.9482868 7.8330897,4.1664296 7.5220345,4.5101371 7.191667,4.8751845 7.2078967,4.9638836 7.6562157,5.2438654 c 0.2804882,0.1751685 0.5099687,0.4890043 0.5099687,0.6974225 0,0.2084185 0.26345,0.5132289 0.5854494,0.6773643 1.4311602,0.7295267 4.3583142,3.9759598 4.3583142,4.8336908 0,2.361443 -1.888671,2.259031 -4.3357499,-0.235104 z m 3.4965956,0.64072 C 12.678063,11.244617 9.9893184,8.0430546 8.4451382,7.3026097 8.0854445,7.1301337 7.6625431,6.7309967 7.5053579,6.4156375 7.2195666,5.8422568 7.2195666,5.8422568 6.5340662,6.5277572 5.8485648,7.2132585 5.8485648,7.2132585 6.4219508,7.499049 6.7373056,7.6562379 7.136447,8.079133 7.3089238,8.4388293 7.7388546,9.3354468 11.212151,12.65212 11.589466,12.526349 c 0.167794,-0.05596 0.474408,-0.356707 0.681356,-0.668396 z M 9.3415479,9.9857804 C 8.1270394,8.7584658 7.8648055,8.3572404 8.1141773,8.1078684 8.4582783,7.7637676 11.637187,10.626793 11.46952,11.129797 11.274755,11.714093 10.798415,11.458009 9.3415479,9.9857804 Z M 4.3217849,4.1857712 C 3.2878282,3.1448668 2.4418628,2.1523085 2.4418628,1.9800866 2.4418628,1.6030822 1.1903406,0.73816629 0.96740782,0.96109896 0.74007699,1.1884298 1.6130323,2.435554 1.9994929,2.435554 c 0.1794235,0 1.1395705,0.8196203 2.1336557,1.8213851 0.9940862,1.0017622 1.8661833,1.8213861 1.9379946,1.8213861 0.071776,0 -0.7154024,-0.8516533 -1.7493583,-1.892554 z M 1.7059393,11.459932 C 1.2611426,10.986467 1.1570693,10.657852 1.2874271,10.138465 1.5848405,8.9534776 3.0400855,8.5405921 3.8326236,9.4163367 5.158096,10.880967 3.0579407,12.899071 1.7059393,11.459932 Z M 3.1830087,11.051969 C 3.6963352,10.726665 3.436474,9.8639868 2.7975652,9.7723864 2.1451183,9.6788455 1.7755341,10.402633 2.2090333,10.924965 2.552015,11.33823 2.7007024,11.357613 3.1830087,11.051969 Z"
       id="path7" /></g></svg>
