<?xml version="1.0" encoding="UTF-8" standalone="no"?>
<!-- Created with Inkscape (http://www.inkscape.org/) -->

<svg
   width="32"
   height="32"
   viewBox="0 0 8.4666665 8.4666666"
   version="1.1"
   id="svg1"
   xml:space="preserve"
   inkscape:version="1.4 (86a8ad7, 2024-10-11)"
   sodipodi:docname="icon-edit-dark.svg"
   xmlns:inkscape="http://www.inkscape.org/namespaces/inkscape"
   xmlns:sodipodi="http://sodipodi.sourceforge.net/DTD/sodipodi-0.dtd"
   xmlns="http://www.w3.org/2000/svg"
   xmlns:svg="http://www.w3.org/2000/svg">
  <style>
    @media (prefers-color-scheme: dark) {
      path {
        fill: white !important;
      }
    }
  </style>
<sodipodi:namedview
     id="namedview1"
     pagecolor="#ffffff"
     bordercolor="#000000"
     borderopacity="0.25"
     inkscape:showpageshadow="2"
     inkscape:pageopacity="0.0"
     inkscape:pagecheckerboard="0"
     inkscape:deskcolor="#d1d1d1"
     inkscape:document-units="mm"
     inkscape:zoom="11.313709"
     inkscape:cx="17.987029"
     inkscape:cy="22.583223"
     inkscape:window-width="1920"
     inkscape:window-height="1009"
     inkscape:window-x="-8"
     inkscape:window-y="-8"
     inkscape:window-maximized="1"
     inkscape:current-layer="layer1" /><defs
     id="defs1" /><g
     inkscape:label="Слой 1"
     inkscape:groupmode="layer"
     id="layer1"><path
       style="fill:#000000;stroke-width:1.59107"
       d="M 0.95873934,8.3313532 C 0.67623599,8.261189 0.41733065,8.0497205 0.26867736,7.7677251 L 0.17937858,7.5983254 V 4.903036 2.2077467 L 0.26964784,2.0239298 C 0.36878265,1.8220601 0.53934659,1.650113 0.75431815,1.5353307 0.89346673,1.4610325 0.89747143,1.4608368 2.4672515,1.4515418 c 1.0981363,-0.0065 1.599725,0.00156 1.6604091,0.0267 0.2035182,0.084299 0.245619,0.393786 0.07534,0.5538257 l -0.083266,0.078258 -1.5155506,0.016237 c -1.1777194,0.012617 -1.5324501,0.025867 -1.5913646,0.059442 -0.1691857,0.096417 -0.16773607,0.072918 -0.16773607,2.7191982 0,2.7235364 -0.008029,2.6194398 0.21037557,2.7230856 0.095339,0.045241 0.3946186,0.05122 2.5639298,0.05122 2.6462819,0 2.6227818,0.00145 2.7191985,-0.167736 0.033575,-0.058915 0.046825,-0.4136451 0.059443,-1.5913646 l 0.016237,-1.5155504 0.078258,-0.083266 c 0.1600402,-0.1702782 0.4695264,-0.1281769 0.5538263,0.075341 0.025136,0.060683 0.033202,0.5622727 0.0267,1.660409 -0.00929,1.5697796 -0.0095,1.5737844 -0.083789,1.7129334 -0.1147836,0.2149714 -0.2867301,0.385536 -0.4885997,0.4846701 l -0.183817,0.090269 -2.6303429,0.00517 C 2.2398143,8.3532321 1.0123208,8.344656 0.9587398,8.3313567 Z M 3.1655099,5.339859 C 3.1067114,5.2748874 3.1082356,5.2581281 3.2312141,4.6173266 L 3.3571128,3.9613085 4.7553877,2.5567399 6.1536625,1.1521712 6.7630829,1.7609585 7.3725035,2.3697459 5.9804299,3.7618195 4.5883561,5.153893 3.9608674,5.2801331 c -0.3451189,0.069433 -0.6517155,0.1262403 -0.6813258,0.1262403 -0.02961,0 -0.080925,-0.029931 -0.1140317,-0.066514 z M 7.1353264,1.3872705 6.5249792,0.77534757 6.8444224,0.46537341 c 0.2577274,-0.2500875 0.3529769,-0.32111206 0.493013,-0.3676246 0.5545245,-0.18418349 1.1388889,0.24471447 1.1388889,0.83589491 0,0.24642698 -0.094859,0.41537178 -0.4198077,0.74767278 l -0.310843,0.3178772 z"
       id="path1" /></g></svg>
