<?xml version="1.0" encoding="UTF-8" standalone="no"?>
<!-- Created with Inkscape (http://www.inkscape.org/) -->

<svg width="90" height="90" viewBox="0 0 23.8125 23.8125" version="1.1" id="svg1"
  xml:space="preserve" inkscape:version="1.3.2 (091e20e, 2023-11-25, custom)"
  sodipodi:docname="icon-notification-dark.svg"
  xmlns:inkscape="http://www.inkscape.org/namespaces/inkscape"
  xmlns:sodipodi="http://sodipodi.sourceforge.net/DTD/sodipodi-0.dtd"
  xmlns="http://www.w3.org/2000/svg"
  xmlns:svg="http://www.w3.org/2000/svg">
  <sodipodi:namedview id="namedview1" pagecolor="#212121" bordercolor="#000000" borderopacity="0.25" inkscape:showpageshadow="2" inkscape:pageopacity="0.0" inkscape:pagecheckerboard="0" inkscape:deskcolor="#d1d1d1" inkscape:document-units="mm" inkscape:zoom="4.0970528" inkscape:cx="32.706437" inkscape:cy="48.083344" inkscape:window-width="1403" inkscape:window-height="876" inkscape:window-x="237" inkscape:window-y="62" inkscape:window-maximized="0" inkscape:current-layer="layer1" />
  <defs id="defs1" />
  <g inkscape:label="Слой 1" inkscape:groupmode="layer" id="layer1">
    <path id="rect1" style="fill:none;fill-opacity:1;stroke:#000000;stroke-width:0.623949;stroke-linecap:round;stroke-linejoin:round;stroke-opacity:1" d="m 10.875191,2.2354948 0.07676,-1.1574177 h 2.101631 l 0.04293,1.1574177 c 5.333119,-0.099499 5.480377,3.3555281 5.480377,3.3555281 0.274124,1.7970449 0.01635,11.3329121 0.01635,11.3329121 2.481907,-0.148605 2.234545,1.727954 2.234545,1.727954 0,0 -0.43571,0.942674 -1.083937,0.942674 H 3.9496121 c -0.6482272,0 -0.8685616,-0.942674 -0.8685616,-0.942674 0,0 -0.5011094,-1.801487 2.0269344,-1.771029 0,0 -0.2905308,-10.7804394 0.242659,-11.7467117 0,0 0.6676429,-2.895592 5.5245911,-2.8986535 z" sodipodi:nodetypes="cccccccsscccc" />
    <path id="path1" style="fill:none;fill-opacity:1;stroke:#000000;stroke-width:0.623949;stroke-linecap:round;stroke-linejoin:round;stroke-opacity:1" d="m 14.129644,20.411601 c 0,1.355998 -1.099256,2.455252 -2.455255,2.455252 -1.355999,0 -2.4552522,-1.099254 -2.4552522,-2.455252" sodipodi:nodetypes="csc" />
    <path id="rect2" style="fill:#000000;fill-opacity:1;stroke:none;stroke-width:0.53602;stroke-linecap:round;stroke-linejoin:round;stroke-opacity:1" d="m 1.9203684,5.6841327 c 0,0 0.2341286,-0.7392894 0.3635185,-1.1047268 C 2.4870494,4.0055967 2.739028,3.471526 3.0768006,2.9651222 3.3663066,2.5310802 3.6928363,2.1581374 4.0695166,1.7971397 4.3778189,1.5016742 4.9880892,0.90418205 4.9880892,0.90418205 5.1614653,0.73564681 5.4576133,0.68691137 5.7480133,0.87330537 l 0.05386,0.0345618 C 6.0922752,1.0942394 6.2209259,1.4081065 6.0903302,1.6115961 c 0,0 -0.6112668,0.5964564 -0.9185749,0.8929576 C 4.7858164,2.8769231 4.4499583,3.2626374 4.1547589,3.7103711 3.8258262,4.2092629 3.5779929,4.7319577 3.3803123,5.2958824 3.2532076,5.6584436 3.0226094,6.3915468 3.0226094,6.3915468 2.9475764,6.6213993 2.5530854,6.6088175 2.2626853,6.4224453 l -0.05386,-0.034562 C 1.9184234,6.2015112 1.7897727,5.8876441 1.9203684,5.6841567 Z" sodipodi:nodetypes="sssssssssssssss" />
    <path id="path2" style="fill:#000000;fill-opacity:1;stroke-width:0.53602;stroke-linecap:round;stroke-linejoin:round" d="m 21.338735,5.6841327 c 0,0 -0.234129,-0.7392894 -0.363519,-1.1047268 C 20.772054,4.0055967 20.520075,3.471526 20.182303,2.9651222 19.892797,2.5310802 19.566267,2.1581374 19.189587,1.7971397 18.881284,1.5016742 18.271014,0.90418205 18.271014,0.90418205 18.097638,0.73564681 17.80149,0.68691137 17.51109,0.87330537 l -0.05386,0.0345618 C 17.166828,1.0942394 17.038177,1.4081065 17.168773,1.6115961 c 0,0 0.611267,0.5964564 0.918575,0.8929576 0.385939,0.3723694 0.721797,0.7580837 1.016996,1.2058174 0.328933,0.4988918 0.576766,1.0215866 0.774447,1.5855113 0.127083,0.3625612 0.357703,1.0956644 0.357703,1.0956644 0.07503,0.2298525 0.469524,0.2172707 0.759924,0.030899 l 0.05386,-0.034562 C 21.34068,6.2015116 21.469331,5.8876445 21.338735,5.6841571 Z" sodipodi:nodetypes="sssssssssssssss" />
  </g>
</svg>