<?xml version="1.0" encoding="UTF-8" standalone="no"?>
<!-- Created with Inkscape (http://www.inkscape.org/) -->

<svg width="90" height="90" viewBox="0 0 23.8125 23.8125" version="1.1" id="svg1"
  xml:space="preserve" inkscape:version="1.3.2 (091e20e, 2023-11-25, custom)"
  sodipodi:docname="icon-gear-dark.svg"
  xmlns:inkscape="http://www.inkscape.org/namespaces/inkscape"
  xmlns:sodipodi="http://sodipodi.sourceforge.net/DTD/sodipodi-0.dtd"
  xmlns="http://www.w3.org/2000/svg"
  xmlns:svg="http://www.w3.org/2000/svg">
  <sodipodi:namedview id="namedview1" pagecolor="#ffffff" bordercolor="#000000" borderopacity="0.25" inkscape:showpageshadow="2" inkscape:pageopacity="0.0" inkscape:pagecheckerboard="0" inkscape:deskcolor="#d1d1d1" inkscape:document-units="mm" inkscape:zoom="5.7941076" inkscape:cx="37.192958" inkscape:cy="40.213267" inkscape:window-width="1403" inkscape:window-height="876" inkscape:window-x="237" inkscape:window-y="62" inkscape:window-maximized="0" inkscape:current-layer="layer1" />
  <defs id="defs1" />
  <g inkscape:label="Слой 1" inkscape:groupmode="layer" id="layer1">
    <g inkscape:label="Rendered Gears" transform="matrix(1.3360609,0,0,1.3360609,11.895571,11.918337)" id="g2" style="stroke-width:0.528454;stroke-dasharray:none">
      <path style="fill:none;stroke:#000000;stroke-width:0.528454;stroke-dasharray:none" d="M 4.9543,-0.99471 6.50537,-1.30614 6.6081,-1.31443 8.39507,-0.67236 V 0.67236 L 6.6081,1.31443 6.50537,1.30614 4.9543,0.99471 4.20659,2.79985 5.52357,3.67642 5.60208,3.74319 6.41164,5.46078 5.46078,6.41164 3.74319,5.60208 3.67642,5.52357 2.79985,4.20659 0.99471,4.9543 1.30614,6.50537 1.31443,6.6081 0.67236,8.39507 H -0.67236 L -1.31443,6.6081 -1.30614,6.50537 -0.99471,4.9543 -2.79985,4.20659 -3.67642,5.52357 -3.74319,5.60208 -5.46078,6.41164 -6.41164,5.46078 -5.60208,3.74319 -5.52357,3.67642 -4.20659,2.79985 -4.9543,0.99471 -6.50537,1.30614 -6.6081,1.31443 -8.39507,0.67236 v -1.34472 l 1.78697,-0.64207 0.10273,0.00829 1.55107,0.31143 0.74771,-1.80514 -1.31698,-0.87657 -0.07851,-0.06677 -0.80956,-1.71759 0.95086,-0.95086 1.71759,0.80956 0.06677,0.07851 0.87657,1.31698 1.80514,-0.74771 -0.31143,-1.55107 -0.00829,-0.10273 0.64207,-1.78697 h 1.34472 l 0.64207,1.78697 -0.00829,0.10273 -0.31143,1.55107 1.80514,0.74771 0.87657,-1.31698 0.06677,-0.07851 1.71759,-0.80956 0.95086,0.95086 -0.80956,1.71759 -0.07851,0.06677 -1.31698,0.87657 z" id="path1" />
      <circle style="fill:none;stroke:#000000;stroke-width:0.528454;stroke-dasharray:none" id="path2" cx="0" cy="0" r="2.6458333" />
    </g>
  </g>
</svg>