<?xml version="1.0" encoding="UTF-8" standalone="no"?>
<!-- Created with Inkscape (http://www.inkscape.org/) -->

<svg
   width="40"
   height="40"
   viewBox="0 0 10.583334 10.583334"
   version="1.1"
   id="svg1"
   xml:space="preserve"
   inkscape:version="1.3.2 (091e20e, 2023-11-25, custom)"
   sodipodi:docname="icon-gear-dark.svg"
   xmlns:inkscape="http://www.inkscape.org/namespaces/inkscape"
   xmlns:sodipodi="http://sodipodi.sourceforge.net/DTD/sodipodi-0.dtd"
   xmlns="http://www.w3.org/2000/svg"
   xmlns:svg="http://www.w3.org/2000/svg">
   <sodipodi:namedview
   id="namedview1"
   pagecolor="#ffffff"
   bordercolor="#000000"
   borderopacity="0.25"
   inkscape:showpageshadow="2"
   inkscape:pageopacity="0.0"
   inkscape:pagecheckerboard="0"
   inkscape:deskcolor="#d1d1d1"
   inkscape:document-units="mm"
   inkscape:zoom="5.7941076"
   inkscape:cx="37.106663"
   inkscape:cy="40.213268"
   inkscape:window-width="1403"
   inkscape:window-height="876"
   inkscape:window-x="424"
   inkscape:window-y="57"
   inkscape:window-maximized="0"
   inkscape:current-layer="layer1" />
   <defs
   id="defs1" />
   <g
   inkscape:label="Слой 1"
   inkscape:groupmode="layer"
   id="layer1">
      <g
   inkscape:label="Rendered Gears"
   transform="matrix(0.60297795,0,0,0.60297795,5.3198992,5.3049875)"
   id="g2"
   style="stroke-width:0.67179419;stroke-dasharray:none">
         <path
   id="gears"
   style="fill:none;fill-opacity:1;stroke:#000000;stroke-width:0.67179419;stroke-dasharray:none;stroke-opacity:1"
   d="m -0.63641995,-7.8834773 -0.60805955,1.691438 0.00804,0.097209 0.29497921,1.4681924 -1.70886861,0.7072799 -0.829294,-1.2462875 -0.063688,-0.074416 -1.6257382,-0.7662757 -0.8996868,0.9003572 0.7662758,1.6257382 0.074416,0.063018 1.2462874,0.8299644 -0.7079503,1.70819828 -1.4681924,-0.29497938 -0.097209,-0.00738 -1.6914381,0.6073891 v 1.27310379 l 1.6914381,0.60738921 0.097209,-0.00738 1.4681924,-0.2949794 0.7079503,1.7088687 -1.2462874,0.8292941 -0.074416,0.063689 -0.7662758,1.6257381 0.8996868,0.8996869 1.6257382,-0.7662758 0.063688,-0.074416 0.829294,-1.2462875 1.70886861,0.7079503 -0.29497921,1.4681924 -0.00804,0.097209 0.60805955,1.6914381 h 1.2731038 L 1.244073,6.3177642 1.2360281,6.2205552 0.94171922,4.7523627 2.6499175,4.0444124 3.4798818,5.2906999 3.5429003,5.3651152 5.1686384,6.131391 6.0689956,5.2317042 5.3027199,3.605966 5.2283047,3.5422773 3.9820171,2.7129833 4.689297,1.0041145 l 1.4681925,0.2949793 0.097209,0.00737 1.6914381,-0.60738923 v -1.2731038 l -1.6914381,-0.60738917 -0.097209,0.00738 -1.4681925,0.29497925 -0.7072799,-1.70819825 1.2462875,-0.8299644 0.074416,-0.063018 0.7662757,-1.6257381 -0.9003572,-0.9003572 -1.6257382,0.7662757 -0.063018,0.074416 -0.8299644,1.2462876 -1.7081984,-0.7072799 0.2943089,-1.4681924 0.00804,-0.097209 -0.60738916,-1.6914382 z m 0.63621668986,5.4416975 A 2.5043979,2.5043979 0 0 1 2.5044391,0.06286247 2.5043979,2.5043979 0 0 1 -2.0326014e-4,2.5668345 2.5043979,2.5043979 0 0 1 -2.5041752,0.06286247 2.5043979,2.5043979 0 0 1 -2.0326014e-4,-2.4417798 Z"
   inkscape:label="gears" />
      </g>
   </g>
</svg>
