<?xml version="1.0" encoding="UTF-8" standalone="no"?>
<!-- Created with Inkscape (http://www.inkscape.org/) -->

<svg width="250" height="250" viewBox="0 0 66.145832 66.145832" version="1.1" id="svg1"
  xml:space="preserve" inkscape:version="1.3.2 (091e20e, 2023-11-25, custom)"
  sodipodi:docname="logo-no-text-dark.svg"
  xmlns:inkscape="http://www.inkscape.org/namespaces/inkscape"
  xmlns:sodipodi="http://sodipodi.sourceforge.net/DTD/sodipodi-0.dtd"
  xmlns="http://www.w3.org/2000/svg"
  xmlns:svg="http://www.w3.org/2000/svg">
  <sodipodi:namedview id="namedview1" pagecolor="#212121" bordercolor="#000000" borderopacity="0.25" inkscape:showpageshadow="2" inkscape:pageopacity="0.0" inkscape:pagecheckerboard="0" inkscape:deskcolor="#d1d1d1" inkscape:document-units="mm" inkscape:zoom="2.0485264" inkscape:cx="95.434455" inkscape:cy="122.28302" inkscape:window-width="1920" inkscape:window-height="1057" inkscape:window-x="-8" inkscape:window-y="-8" inkscape:window-maximized="1" inkscape:current-layer="layer1" />
  <defs id="defs1" />
  <g inkscape:label="Слой 1" inkscape:groupmode="layer" id="layer1">
    <path id="rect1" style="fill:none;stroke:#000000;stroke-width:1.28318;stroke-linecap:round;stroke-linejoin:round;stroke-dasharray:none;stroke-opacity:1" d="m 41.18621,24.450092 c 0.08802,1.383434 0.202268,1.039429 0.202268,2.639588 0,5.422189 -1.161709,9.787341 -2.604728,9.787341 H 14.47061 L 9.7363477,42.431477 11.279937,36.877021 H 6.5664185 c -1.4430205,0 -2.6047295,-4.365152 -2.6047295,-9.787341 0,-5.422187 1.161709,-9.787342 2.6047295,-9.787342 H 38.78375 c 1.017164,0 1.55385,0.517778 1.983125,3.696949" sodipodi:nodetypes="csscccssssc" />
    <path id="rect2" style="fill:none;stroke:#000000;stroke-width:1.40694;stroke-linecap:round;stroke-linejoin:round;stroke-opacity:1" d="m 31.875657,34.416801 c 0,-6.425511 5.345119,-11.931967 11.514471,-11.931967 h 6.914007 c 6.379017,0 11.514468,5.172883 11.514468,11.598393 0,4.016457 -2.00655,7.543483 -5.069115,9.623614 -0.440238,0.299017 2.470527,5.783554 1.989471,6.019926 -0.433376,0.212954 -4.254994,-4.816103 -4.717141,-4.658379 -1.165348,0.397707 -2.41561,0.613228 -3.717683,0.613228 h -6.914007 c -5.395772,0 -9.938855,-1.75525 -11.199756,-6.784927" sodipodi:nodetypes="cssssssssc" />
  </g>
</svg>